<svg width="32" height="32" viewBox="0 0 32 32" fill="none" xmlns="http://www.w3.org/2000/svg">
  <rect width="32" height="32" rx="8" fill="#2dd4bf"/>
  <path d="M8 12C8 10.8954 8.89543 10 10 10H22C23.1046 10 24 10.8954 24 12V20C24 21.1046 23.1046 22 22 22H10C8.89543 22 8 21.1046 8 20V12Z" fill="white"/>
  <circle cx="12" cy="14" r="1.5" fill="#2dd4bf"/>
  <circle cx="20" cy="14" r="1.5" fill="#2dd4bf"/>
  <path d="M12 18C12 16.8954 12.8954 16 14 16H18C19.1046 16 20 16.8954 20 18V19H12V18Z" fill="#2dd4bf"/>
  <path d="M6 8L10 12L14 8" stroke="white" stroke-width="2" stroke-linecap="round" stroke-linejoin="round"/>
  <path d="M18 8L22 12L26 8" stroke="white" stroke-width="2" stroke-linecap="round" stroke-linejoin="round"/>
</svg>